<svg width="50" height="50" viewBox="0 0 50 50" fill="none" xmlns="http://www.w3.org/2000/svg">
<path d="M49.5524 8.61113L41.3889 0.447645C41.1019 0.161004 40.7128 0 40.3072 0C39.9016 0 39.5125 0.161004 39.2255 0.447645L14.7351 24.9381C14.448 25.2249 14.2865 25.6139 14.2861 26.0198V34.1832C14.2861 34.5892 14.4474 34.9785 14.7344 35.2656C15.0215 35.5526 15.4108 35.7139 15.8168 35.7139H23.9802C24.3861 35.7135 24.7751 35.552 25.0619 35.2649L49.5524 10.7745C49.839 10.4875 50 10.0984 50 9.69279C50 9.28717 49.839 8.89813 49.5524 8.61113ZM23.345 32.6526H17.3474V26.655L34.1846 9.81779L40.1822 15.8154L23.345 32.6526ZM42.3481 13.6495L36.3505 7.65192L40.3072 3.69518L46.3048 9.69279L42.3481 13.6495ZM47.9605 26.0198V46.4285C47.9605 47.3757 47.5842 48.2841 46.9144 48.9539C46.2446 49.6237 45.3362 50 44.389 50H3.57152C2.6243 50 1.71587 49.6237 1.04608 48.9539C0.376285 48.2841 0 47.3757 0 46.4285V5.61105C0 4.66382 0.376285 3.75539 1.04608 3.0856C1.71587 2.41581 2.6243 2.03952 3.57152 2.03952H23.9802C24.3862 2.03952 24.7755 2.20079 25.0626 2.48784C25.3496 2.7749 25.5109 3.16422 25.5109 3.57018C25.5109 3.97613 25.3496 4.36546 25.0626 4.65251C24.7755 4.93957 24.3862 5.10083 23.9802 5.10083H3.57152C3.43621 5.10083 3.30643 5.15459 3.21075 5.25027C3.11506 5.34595 3.06131 5.47573 3.06131 5.61105V46.4285C3.06131 46.5638 3.11506 46.6936 3.21075 46.7893C3.30643 46.8849 3.43621 46.9387 3.57152 46.9387H44.389C44.5243 46.9387 44.654 46.8849 44.7497 46.7893C44.8454 46.6936 44.8992 46.5638 44.8992 46.4285V26.0198C44.8992 25.6138 45.0604 25.2245 45.3475 24.9374C45.6345 24.6504 46.0239 24.4891 46.4298 24.4891C46.8358 24.4891 47.2251 24.6504 47.5122 24.9374C47.7992 25.2245 47.9605 25.6138 47.9605 26.0198Z" fill="#7251B1"/>
</svg>
