<?xml version="1.0" encoding="UTF-8"?>
<svg id="svg9" xmlns="http://www.w3.org/2000/svg" xmlns:xlink="http://www.w3.org/1999/xlink" viewBox="0 0 933.33 933.33">
  <defs>
    <style>
      .cls-1 {
        fill: none;
      }

      .cls-2 {
        fill: #fff;
      }

      .cls-3 {
        clip-path: url(#clippath);
      }
    </style>
    <clipPath id="clippath">
      <rect class="cls-1" width="933.33" height="933.33"/>
    </clipPath>
  </defs>
  <g id="g17">
    <g id="g19">
      <g class="cls-3">
        <g id="g21">
          <g id="g27">
            <path id="path29" d="M800,466.67c0-184.09-149.24-333.33-333.33-333.33S133.33,282.57,133.33,466.67c0,156.33,107.62,287.5,252.81,323.52v-221.66h-68.74v-101.86h68.74v-43.89c0-113.46,51.34-166.04,162.73-166.04,21.12,0,57.56,4.14,72.46,8.28v92.34c-7.87-.83-21.53-1.24-38.51-1.24-54.66,0-75.78,20.7-75.78,74.53v36.02h108.88l-18.7,101.86h-90.17v229.03c165.05-19.93,292.95-160.47,292.95-330.89"/>
          </g>
          <g id="g31">
            <path id="path33" class="cls-2" d="M597.22,568.53l18.71-101.86h-108.88v-36.03c0-53.83,21.12-74.53,75.77-74.53,16.98,0,30.64.41,38.51,1.24v-92.34c-14.91-4.14-51.35-8.28-72.46-8.28-111.39,0-162.73,52.59-162.73,166.04v43.89h-68.74v101.86h68.74v221.66c25.79,6.4,52.76,9.82,80.53,9.82,13.67,0,27.14-.84,40.38-2.44v-229.03h90.17Z"/>
          </g>
        </g>
      </g>
    </g>
  </g>
</svg>