<svg width="45" height="45" viewBox="0 0 45 45" fill="none" xmlns="http://www.w3.org/2000/svg">
<path d="M22.5 27C34.92 27 45 31.71 45 37.5V45H0V37.5C0 31.71 10.08 27 22.5 27ZM42 37.5C42 33.36 33.27 30 22.5 30C11.73 30 3 33.36 3 37.5V42H42V37.5ZM22.5 0C25.2848 0 27.9555 1.10625 29.9246 3.07538C31.8938 5.04451 33 7.71523 33 10.5C33 13.2848 31.8938 15.9555 29.9246 17.9246C27.9555 19.8938 25.2848 21 22.5 21C19.7152 21 17.0445 19.8938 15.0754 17.9246C13.1062 15.9555 12 13.2848 12 10.5C12 7.71523 13.1062 5.04451 15.0754 3.07538C17.0445 1.10625 19.7152 0 22.5 0ZM22.5 3C20.5109 3 18.6032 3.79018 17.1967 5.1967C15.7902 6.60322 15 8.51088 15 10.5C15 12.4891 15.7902 14.3968 17.1967 15.8033C18.6032 17.2098 20.5109 18 22.5 18C24.4891 18 26.3968 17.2098 27.8033 15.8033C29.2098 14.3968 30 12.4891 30 10.5C30 8.51088 29.2098 6.60322 27.8033 5.1967C26.3968 3.79018 24.4891 3 22.5 3Z" fill="#7251B1"/>
</svg>
